<?xml version="1.0" encoding="iso-8859-1"?>
<!-- Uploaded to: SVG Repo, www.svgrepo.com, Generator: SVG Repo Mixer Tools -->
<!DOCTYPE svg PUBLIC "-//W3C//DTD SVG 1.1//EN" "http://www.w3.org/Graphics/SVG/1.1/DTD/svg11.dtd">
<svg fill="#e4e4e4" version="1.1" id="Capa_1" xmlns="http://www.w3.org/2000/svg" xmlns:xlink="http://www.w3.org/1999/xlink" 
	 width="800px" height="800px" viewBox="0 0 321.92 321.92"
	 xml:space="preserve">
<g>
	<g>
		<path d="M158.123,265.333H10.751V56.586h200.233V164.1c0,2.977,2.403,5.374,5.376,5.374c2.971,0,5.374-2.397,5.374-5.374V51.21
			c0-2.972-2.403-5.375-5.374-5.375H5.375C2.402,45.835,0,48.239,0,51.21v219.499c0,2.981,2.402,5.376,5.375,5.376h152.747
			c2.972,0,5.376-2.395,5.376-5.376C163.499,267.738,161.088,265.333,158.123,265.333z"/>
		<path d="M96.316,83.458c-2.102-2.103-5.499-2.103-7.601,0l-23.318,23.312L53.523,94.896c-2.103-2.102-5.498-2.102-7.601,0
			c-2.103,2.102-2.103,5.499,0,7.601l15.675,15.675c1.047,1.047,2.423,1.575,3.8,1.575c1.375,0,2.751-0.528,3.801-1.575
			l27.118-27.113C98.411,88.957,98.411,85.56,96.316,83.458z"/>
		<path d="M174.25,101.159h-69.88c-2.974,0-5.375,2.404-5.375,5.375c0,2.971,2.402,5.375,5.375,5.375h69.88
			c2.971,0,5.376-2.405,5.376-5.375C179.625,103.563,177.215,101.159,174.25,101.159z"/>
		<path d="M96.316,137.211c-2.102-2.102-5.499-2.102-7.601,0l-23.318,23.313L53.523,148.65c-2.103-2.103-5.498-2.103-7.601,0
			c-2.103,2.103-2.103,5.499,0,7.601l15.675,15.676c1.047,1.039,2.423,1.574,3.8,1.574c1.375,0,2.751-0.535,3.801-1.574
			l27.118-27.114C98.411,142.71,98.411,139.314,96.316,137.211z"/>
		<path d="M174.25,154.912h-69.88c-2.974,0-5.375,2.405-5.375,5.376c0,2.971,2.402,5.375,5.375,5.375h69.88
			c2.971,0,5.376-2.404,5.376-5.375C179.625,157.317,177.215,154.912,174.25,154.912z"/>
		<path d="M88.715,190.965l-23.318,23.312l-11.874-11.873c-2.103-2.111-5.498-2.111-7.601,0c-2.103,2.109-2.103,5.49,0,7.602
			l15.675,15.675c1.047,1.039,2.423,1.574,3.8,1.574c1.375,0,2.751-0.535,3.801-1.574l27.118-27.114
			c2.103-2.104,2.103-5.495,0-7.602C94.214,188.859,90.812,188.859,88.715,190.965z"/>
		<path d="M174.25,208.666h-69.88c-2.974,0-5.375,2.404-5.375,5.376c0,2.971,2.402,5.375,5.375,5.375h69.88
			c2.971,0,5.376-2.404,5.376-5.375C179.625,211.07,177.215,208.666,174.25,208.666z"/>
		<polygon points="287.75,190.604 233.998,246.215 219.777,232.274 274.995,178.373 		"/>
		<polygon points="212.102,224.74 202.281,215.113 256.634,160.766 267.227,170.93 		"/>
		<path d="M214.827,265.333l-15.49-13.862c-0.131-0.111-0.31-0.153-0.447-0.263V226.84l39.255,38.493H214.827z"/>
		<polygon points="251.258,263.145 241.678,253.754 295.505,198.036 306.157,208.247 		"/>
		<path d="M279.747,168.021c-0.221-0.374-0.395-0.784-0.719-1.104c-0.441-0.462-0.967-0.776-1.512-1.028l-13.271-12.73l9.175-9.181
			l48.5,48.504l-8.164,8.158L279.747,168.021z"/>
	</g>
</g>
</svg>